<svg width="19" height="19" viewBox="0 0 19 19" fill="none" xmlns="http://www.w3.org/2000/svg">
<path d="M1 9.00002H7C7.26522 9.00002 7.51957 8.89466 7.70711 8.70713C7.89464 8.51959 8 8.26524 8 8.00002V2.00002C8 1.7348 7.89464 1.48045 7.70711 1.29291C7.51957 1.10538 7.26522 1.00002 7 1.00002H1C0.734784 1.00002 0.48043 1.10538 0.292893 1.29291C0.105357 1.48045 0 1.7348 0 2.00002V8.00002C0 8.26524 0.105357 8.51959 0.292893 8.70713C0.48043 8.89466 0.734784 9.00002 1 9.00002ZM1 19H7C7.26522 19 7.51957 18.8947 7.70711 18.7071C7.89464 18.5196 8 18.2652 8 18V12C8 11.7348 7.89464 11.4804 7.70711 11.2929C7.51957 11.1054 7.26522 11 7 11H1C0.734784 11 0.48043 11.1054 0.292893 11.2929C0.105357 11.4804 0 11.7348 0 12V18C0 18.2652 0.105357 18.5196 0.292893 18.7071C0.48043 18.8947 0.734784 19 1 19ZM11 19H17C17.2652 19 17.5196 18.8947 17.7071 18.7071C17.8946 18.5196 18 18.2652 18 18V12C18 11.7348 17.8946 11.4804 17.7071 11.2929C17.5196 11.1054 17.2652 11 17 11H11C10.7348 11 10.4804 11.1054 10.2929 11.2929C10.1054 11.4804 10 11.7348 10 12V18C10 18.2652 10.1054 18.5196 10.2929 18.7071C10.4804 18.8947 10.7348 19 11 19ZM18.293 4.29302L14.707 0.70702C14.6142 0.614074 14.504 0.540336 14.3827 0.490025C14.2614 0.439715 14.1313 0.413818 14 0.413818C13.8687 0.413818 13.7386 0.439715 13.6173 0.490025C13.496 0.540336 13.3858 0.614074 13.293 0.70702L9.707 4.29302C9.61405 4.38581 9.54032 4.49601 9.49001 4.61733C9.43969 4.73864 9.4138 4.86869 9.4138 5.00002C9.4138 5.13135 9.43969 5.2614 9.49001 5.38271C9.54032 5.50403 9.61405 5.61423 9.707 5.70702L13.293 9.29302C13.3858 9.38597 13.496 9.4597 13.6173 9.51001C13.7386 9.56032 13.8687 9.58622 14 9.58622C14.1313 9.58622 14.2614 9.56032 14.3827 9.51001C14.504 9.4597 14.6142 9.38597 14.707 9.29302L18.293 5.70702C18.3859 5.61423 18.4597 5.50403 18.51 5.38271C18.5603 5.2614 18.5862 5.13135 18.5862 5.00002C18.5862 4.86869 18.5603 4.73864 18.51 4.61733C18.4597 4.49601 18.3859 4.38581 18.293 4.29302Z" fill="#E4E5EA"/>
</svg>
