<svg width="18" height="26" viewBox="0 0 18 26" fill="none" xmlns="http://www.w3.org/2000/svg">
<path d="M8.96875 25.5H9C13.8237 25.5 17.75 21.575 17.75 16.75V9.25C17.75 4.44875 13.8413 0.5325 9.02375 0.5H8.94875C4.14875 0.5275 0.25 4.44625 0.25 9.25V16.75C0.25 21.575 4.16125 25.5 8.96875 25.5ZM1.75 9.25C1.7523 7.59635 2.83245 5.17107 4 4C5.16755 2.82893 7.32761 2.00726 8.98125 2C12.4375 2.0075 16.25 5.81125 16.25 9.25V16.75C16.25 20.1963 12.4462 24 9 24H8.96875C5.4825 24 1.75 20.255 1.75 16.75V9.25Z" fill="#656566"/>
<path d="M7.75 9H10.25V16.5H7.75V9Z" fill="#E4E5EA"/>
</svg>
