<svg width="24" height="32" viewBox="0 0 24 32" fill="none" xmlns="http://www.w3.org/2000/svg">
<path d="M7.50061 12.5448C7.51615 11.3589 7.99518 10.2259 8.83563 9.38729C9.67609 8.54866 10.8115 8.07066 12 8.05516C13.1885 8.07066 14.3239 8.54866 15.1644 9.38729C16.0048 10.2259 16.4839 11.3589 16.4994 12.5448C16.4839 13.7307 16.0048 14.8637 15.1644 15.7023C14.3239 16.5409 13.1885 17.0189 12 17.0344C10.8115 17.0189 9.67609 16.5409 8.83563 15.7023C7.99518 14.8637 7.51615 13.7307 7.50061 12.5448ZM12 26.0137L17.9992 27.5102V22.9009C16.1899 23.9881 14.1118 24.5479 12 24.5171C9.88825 24.5479 7.81005 23.9881 6.00081 22.9009V27.5102L12 26.0137ZM12 3.56553C10.8181 3.54401 9.6443 3.76391 8.55072 4.21172C7.45714 4.65953 6.4669 5.32578 5.64086 6.16951C4.78615 6.99466 4.11073 7.98647 3.65661 9.08324C3.2025 10.18 2.97941 11.3583 3.00122 12.5448C2.98559 13.7238 3.21169 14.8935 3.66561 15.9821C4.11954 17.0707 4.79172 18.0552 5.64086 18.8752C6.46304 19.727 7.45156 20.4016 8.54532 20.8572C9.63909 21.3128 10.8149 21.5398 12 21.5241C13.1851 21.5398 14.3609 21.3128 15.4547 20.8572C16.5484 20.4016 17.537 19.727 18.3591 18.8752C19.2083 18.0552 19.8805 17.0707 20.3344 15.9821C20.7883 14.8935 21.0144 13.7238 20.9988 12.5448C21.0206 11.3583 20.7975 10.18 20.3434 9.08324C19.8893 7.98647 19.2139 6.99466 18.3591 6.16951C17.5331 5.32578 16.5429 4.65953 15.4493 4.21172C14.3557 3.76391 13.1819 3.54401 12 3.56553ZM23.9984 12.5448C23.9664 13.9813 23.6769 15.4005 23.1435 16.7351C22.6629 18.0931 21.9359 19.3512 20.9988 20.4465V31.9999L12 29.0068L3.00122 31.9999V20.4465C1.06002 18.2712 -0.00812319 15.4575 0.00162429 12.5448C-0.0248094 10.9743 0.271643 9.41506 0.87268 7.96334C1.47372 6.51163 2.36658 5.19825 3.49615 4.10428C4.59656 2.96706 5.91887 2.06694 7.38147 1.45949C8.84407 0.852034 10.4159 0.550141 12 0.57244C13.5841 0.550141 15.1559 0.852034 16.6185 1.45949C18.0811 2.06694 19.4034 2.96706 20.5038 4.10428C21.6334 5.19825 22.5263 6.51163 23.1273 7.96334C23.7284 9.41506 24.0248 10.9743 23.9984 12.5448Z" fill="url(#paint0_linear_6553_569)"/>
<defs>
<linearGradient id="paint0_linear_6553_569" x1="-5.20014" y1="-5.19042" x2="52.4294" y2="34.6801" gradientUnits="userSpaceOnUse">
<stop offset="0.369906" stop-color="#FCB045"/>
<stop offset="1" stop-color="#FD1D1D"/>
</linearGradient>
</defs>
</svg>
