<svg width="27" height="32" viewBox="0 0 27 32" fill="none" xmlns="http://www.w3.org/2000/svg">
<path d="M13.2859 10.5713C13.6647 10.5713 14.0281 10.7218 14.296 10.9897C14.5639 11.2576 14.7144 11.621 14.7144 11.9999C14.7144 12.3787 14.5639 12.7421 14.296 13.01C14.0281 13.2779 13.6647 13.4284 13.2859 13.4284C12.907 13.4284 12.5436 13.2779 12.2757 13.01C12.0078 12.7421 11.8573 12.3787 11.8573 11.9999C11.8573 11.621 12.0078 11.2576 12.2757 10.9897C12.5436 10.7218 12.907 10.5713 13.2859 10.5713ZM26.143 14.857C26.143 22.7856 20.6573 30.1999 13.2859 31.9999C5.91443 30.1999 0.428711 22.7856 0.428711 14.857V6.28557L13.2859 0.571289L26.143 6.28557V14.857ZM13.2859 7.71415C12.1492 7.71415 11.0591 8.16568 10.2554 8.9694C9.45167 9.77313 9.00014 10.8632 9.00014 11.9999C9.00014 13.8713 10.1859 15.457 11.8573 16.0427V24.857H14.7144V21.9999H17.5716V19.1427H14.7144V16.0427C16.3859 15.457 17.5716 13.8713 17.5716 11.9999C17.5716 10.8632 17.12 9.77313 16.3163 8.9694C15.5126 8.16568 14.4225 7.71415 13.2859 7.71415Z" fill="url(#paint0_linear_6553_252)"/>
<defs>
<linearGradient id="paint0_linear_6553_252" x1="-5.14287" y1="-5.19042" x2="53.781" y2="38.4874" gradientUnits="userSpaceOnUse">
<stop offset="0.369906" stop-color="#FCB045"/>
<stop offset="1" stop-color="#FD1D1D"/>
</linearGradient>
</defs>
</svg>
