<svg width="32" height="32" viewBox="0 0 32 32" fill="none" xmlns="http://www.w3.org/2000/svg">
<path d="M16.2856 0.571289C7.62072 0.571289 0.571289 7.62072 0.571289 16.2856V22.796C0.571289 24.4051 1.98086 25.7141 3.71415 25.7141H5.28557C5.70234 25.7141 6.10204 25.5486 6.39674 25.2539C6.69144 24.9592 6.857 24.5595 6.857 24.1427V16.0609C6.857 15.6441 6.69144 15.2444 6.39674 14.9497C6.10204 14.655 5.70234 14.4894 5.28557 14.4894H3.85872C4.73243 8.408 9.96529 3.71415 16.2856 3.71415C22.6059 3.71415 27.8387 8.408 28.7124 14.4894H27.2856C26.8688 14.4894 26.4691 14.655 26.1744 14.9497C25.8797 15.2444 25.7141 15.6441 25.7141 16.0609V25.7141C25.7141 27.4474 24.3046 28.857 22.5713 28.857H19.4284V27.2856H13.1427V31.9999H22.5713C26.0379 31.9999 28.857 29.1807 28.857 25.7141C30.5903 25.7141 31.9999 24.4051 31.9999 22.796V16.2856C31.9999 7.62072 24.9504 0.571289 16.2856 0.571289Z" fill="url(#paint0_linear_6553_138)"/>
<defs>
<linearGradient id="paint0_linear_6553_138" x1="-6.23842" y1="-5.19042" x2="55.0473" y2="50.3334" gradientUnits="userSpaceOnUse">
<stop offset="0.369906" stop-color="#FCB045"/>
<stop offset="1" stop-color="#FD1D1D"/>
</linearGradient>
</defs>
</svg>
