<svg width="24" height="32" viewBox="0 0 24 32" fill="none" xmlns="http://www.w3.org/2000/svg">
<path d="M4.857 3.42857H19.1427V8.57143H21.9999V2.85714C21.9999 1.28571 20.7141 0.0142857 19.1427 0.0142857L4.857 0C3.28557 0 1.99986 1.28571 1.99986 2.85714V8.57143H4.857V3.42857ZM16.8713 22.2714L23.4284 15.7143L16.8713 9.15714L14.857 11.1857L19.3856 15.7143L14.857 20.2429L16.8713 22.2714ZM9.14272 20.2429L4.61415 15.7143L9.14272 11.1857L7.12843 9.15714L0.571289 15.7143L7.12843 22.2714L9.14272 20.2429ZM19.1427 28H4.857V22.8571H1.99986V28.5714C1.99986 30.1429 3.28557 31.4286 4.857 31.4286H19.1427C20.7141 31.4286 21.9999 30.1429 21.9999 28.5714V22.8571H19.1427V28Z" fill="url(#paint0_linear_6553_787)"/>
<defs>
<linearGradient id="paint0_linear_6553_787" x1="-4.38122" y1="-5.76171" x2="52.2071" y2="31.5242" gradientUnits="userSpaceOnUse">
<stop offset="0.369906" stop-color="#FCB045"/>
<stop offset="1" stop-color="#FD1D1D"/>
</linearGradient>
</defs>
</svg>
