<svg width="32" height="32" viewBox="0 0 32 32" fill="none" xmlns="http://www.w3.org/2000/svg">
<path d="M31.9999 13.9795L27.4145 13.3066C27.1538 12.3339 26.7657 11.4 26.2602 10.5293L29.0303 6.80438L25.7713 3.54188L22.0491 6.3159C21.1788 5.81012 20.2455 5.42171 19.2735 5.16076L18.6015 0.571289L13.9935 0.571479L13.3212 5.16194C12.3497 5.42247 11.4171 5.81091 10.5479 6.31708L6.86521 3.54175L3.56469 6.80438L6.33681 10.5304C5.83097 11.4008 5.44281 12.3344 5.18252 13.307L0.5946 13.9794L0.571289 18.534L5.18212 19.2644C5.44232 20.2366 5.83048 21.1699 6.33642 22.0398L3.56345 25.7651L6.82297 29.0277L10.5451 26.2539C11.4153 26.76 12.3487 27.1487 13.3208 27.4099L13.9929 31.9999H18.5396L19.2735 27.4102C20.2459 27.1498 21.1793 26.7609 22.0491 26.2539L25.7713 29.0275L29.0308 25.7651L26.2598 22.041C26.7652 21.1704 27.1533 20.2368 27.4141 19.2644L31.9996 18.5915L31.9999 13.9795ZM16.2981 21.5588C13.3227 21.5588 11.0273 18.882 11.0273 16.2857C11.0273 13.3066 13.3208 11.0123 16.2981 11.0123C19.2754 11.0123 21.5665 13.3066 21.5669 16.2857C21.5674 19.2648 19.2735 21.5588 16.2981 21.5588Z" fill="url(#paint0_linear_6553_400)"/>
<defs>
<linearGradient id="paint0_linear_6553_400" x1="-6.23842" y1="-5.19042" x2="55.0473" y2="50.3334" gradientUnits="userSpaceOnUse">
<stop offset="0.369906" stop-color="#FCB045"/>
<stop offset="1" stop-color="#FD1D1D"/>
</linearGradient>
</defs>
</svg>
