<svg width="30" height="34" viewBox="0 0 30 34" fill="none" xmlns="http://www.w3.org/2000/svg">
<path d="M20.8333 21.0711C20.8333 24.4045 16.6667 26.9045 16.6667 29.4045H13.3333C13.3333 26.9045 9.16667 24.4045 9.16667 21.0711C9.16667 17.8545 11.7833 15.2378 15 15.2378C18.2167 15.2378 20.8333 17.8545 20.8333 21.0711ZM16.6667 31.0711H13.3333V33.5711H16.6667V31.0711ZM26.6667 20.2378C26.6667 23.0378 25.6833 25.5878 24.0333 27.6045L26.4 29.9711C27.6815 28.4756 28.6552 26.7418 29.2651 24.8691C29.8751 22.9965 30.1094 21.0218 29.9545 19.0584C29.7997 17.095 29.2588 15.1815 28.3628 13.4276C27.4668 11.6737 26.2334 10.114 24.7333 8.83779L22.3667 11.2045C23.7091 12.2965 24.7915 13.6738 25.5352 15.2363C26.279 16.7988 26.6655 18.5073 26.6667 20.2378ZM21.6667 6.90446L15 0.237793V5.23779C11.0218 5.23779 7.20644 6.81815 4.3934 9.63119C1.58035 12.4442 0 16.2595 0 20.2378C0 23.9545 1.36667 27.3545 3.6 29.9711L5.96667 27.6045C4.25967 25.5294 3.32857 22.9247 3.33333 20.2378C3.33333 13.8045 8.56667 8.57113 15 8.57113V13.5711L21.6667 6.90446Z" fill="url(#paint0_linear_6553_157)"/>
<defs>
<linearGradient id="paint0_linear_6553_157" x1="-6.50036" y1="-5.87311" x2="57.4799" y2="46.2969" gradientUnits="userSpaceOnUse">
<stop offset="0.369906" stop-color="#FCB045"/>
<stop offset="1" stop-color="#FD1D1D"/>
</linearGradient>
</defs>
</svg>
