<svg width="36" height="32" viewBox="0 0 36 32" fill="none" xmlns="http://www.w3.org/2000/svg">
<path d="M34.125 11.0625C33.2465 8.98324 31.973 7.09417 30.375 5.5C28.7808 3.90199 26.8918 2.62845 24.8125 1.75C22.6523 0.835937 20.3633 0.375 18 0.375C15.6367 0.375 13.3477 0.835937 11.1875 1.75C9.10824 2.62845 7.21917 3.90199 5.625 5.5C4.02699 7.09417 2.75345 8.98324 1.875 11.0625C0.960937 13.2227 0.5 15.5117 0.5 17.875C0.5 23.0586 2.77734 27.9414 6.74609 31.2773L6.8125 31.332C7.03906 31.5195 7.32422 31.625 7.61719 31.625H28.3867C28.6797 31.625 28.9648 31.5195 29.1914 31.332L29.2578 31.2773C33.2227 27.9414 35.5 23.0586 35.5 17.875C35.5 15.5117 35.0352 13.2227 34.125 11.0625ZM27.7422 28.6562H8.25781C6.74842 27.2953 5.54206 25.6322 4.71702 23.7748C3.89197 21.9174 3.46668 19.9074 3.46875 17.875C3.46875 13.9922 4.98047 10.3438 7.72656 7.60156C10.4727 4.85547 14.1211 3.34375 18 3.34375C21.8828 3.34375 25.5312 4.85547 28.2734 7.60156C31.0195 10.3477 32.5312 13.9961 32.5312 17.875C32.5312 22 30.793 25.9023 27.7422 28.6562ZM22.3555 12.4648C22.2967 12.4067 22.2174 12.3741 22.1348 12.3741C22.0521 12.3741 21.9728 12.4067 21.9141 12.4648L18.6133 15.7656C17.8828 15.5703 17.0742 15.7578 16.5 16.332C16.2966 16.535 16.1353 16.7761 16.0252 17.0416C15.9151 17.307 15.8584 17.5915 15.8584 17.8789C15.8584 18.1663 15.9151 18.4508 16.0252 18.7162C16.1353 18.9817 16.2966 19.2228 16.5 19.4258C16.703 19.6292 16.9441 19.7905 17.2095 19.9006C17.475 20.0107 17.7595 20.0674 18.0469 20.0674C18.3342 20.0674 18.6188 20.0107 18.8842 19.9006C19.1496 19.7905 19.3907 19.6292 19.5938 19.4258C19.8658 19.1545 20.0614 18.8163 20.1609 18.4452C20.2603 18.0742 20.2601 17.6834 20.1602 17.3125L23.4609 14.0117C23.582 13.8906 23.582 13.6914 23.4609 13.5703L22.3555 12.4648ZM17.1406 8.5H18.8594C19.0312 8.5 19.1719 8.35938 19.1719 8.1875V5.0625C19.1719 4.89062 19.0312 4.75 18.8594 4.75H17.1406C16.9688 4.75 16.8281 4.89062 16.8281 5.0625V8.1875C16.8281 8.35938 16.9688 8.5 17.1406 8.5ZM27.2969 17.0156V18.7344C27.2969 18.9062 27.4375 19.0469 27.6094 19.0469H30.7344C30.9062 19.0469 31.0469 18.9062 31.0469 18.7344V17.0156C31.0469 16.8438 30.9062 16.7031 30.7344 16.7031H27.6094C27.4375 16.7031 27.2969 16.8438 27.2969 17.0156ZM27.793 9.3125L26.5781 8.09766C26.5194 8.0395 26.4401 8.00688 26.3574 8.00688C26.2748 8.00688 26.1955 8.0395 26.1367 8.09766L23.9258 10.3086C23.8676 10.3673 23.835 10.4466 23.835 10.5293C23.835 10.612 23.8676 10.6913 23.9258 10.75L25.1406 11.9648C25.2617 12.0859 25.4609 12.0859 25.582 11.9648L27.793 9.75391C27.9141 9.63281 27.9141 9.43359 27.793 9.3125ZM9.87891 8.09766C9.82017 8.0395 9.74086 8.00688 9.6582 8.00688C9.57555 8.00688 9.49623 8.0395 9.4375 8.09766L8.22266 9.3125C8.1645 9.37123 8.13188 9.45055 8.13188 9.5332C8.13188 9.61586 8.1645 9.69517 8.22266 9.75391L10.4336 11.9648C10.5547 12.0859 10.7539 12.0859 10.875 11.9648L12.0898 10.75C12.2109 10.6289 12.2109 10.4297 12.0898 10.3086L9.87891 8.09766ZM8.23438 16.7031H5.10938C4.9375 16.7031 4.79688 16.8438 4.79688 17.0156V18.7344C4.79688 18.9062 4.9375 19.0469 5.10938 19.0469H8.23438C8.40625 19.0469 8.54688 18.9062 8.54688 18.7344V17.0156C8.54688 16.8438 8.40625 16.7031 8.23438 16.7031Z" fill="url(#paint0_linear_6553_328)"/>
<defs>
<linearGradient id="paint0_linear_6553_328" x1="-7.08354" y1="-5.35397" x2="54.1447" y2="56.7744" gradientUnits="userSpaceOnUse">
<stop offset="0.369906" stop-color="#FCB045"/>
<stop offset="1" stop-color="#FD1D1D"/>
</linearGradient>
</defs>
</svg>
