<svg width="34" height="38" viewBox="0 0 34 38" fill="none" xmlns="http://www.w3.org/2000/svg">
<path d="M17 37.7499C16.7786 37.75 16.5612 37.6914 16.37 37.5799L1.37 28.8299C1.18128 28.7198 1.02472 28.5621 0.915934 28.3726C0.807148 28.1831 0.749935 27.9684 0.75 27.7499V10.2499C0.749935 10.0314 0.807148 9.81667 0.915934 9.62718C1.02472 9.43768 1.18128 9.28001 1.37 9.16988L16.37 0.419882C16.5612 0.308306 16.7786 0.249512 17 0.249512C17.2214 0.249512 17.4388 0.308306 17.63 0.419882L32.63 9.16988L31.37 11.3299L17 2.94738L3.25 10.9674V27.0324L17 35.0536L30.75 27.0324V17.7499H33.25V27.7499C33.2501 27.9684 33.1929 28.1831 33.0841 28.3726C32.9753 28.5621 32.8187 28.7198 32.63 28.8299L17.63 37.5799C17.4388 37.6914 17.2214 37.75 17 37.7499Z" fill="url(#paint0_linear_6553_601)"/>
<defs>
<linearGradient id="paint0_linear_6553_601" x1="-6.29185" y1="-6.62532" x2="65.0928" y2="49.4243" gradientUnits="userSpaceOnUse">
<stop offset="0.369906" stop-color="#FCB045"/>
<stop offset="1" stop-color="#FD1D1D"/>
</linearGradient>
</defs>
</svg>
