<svg width="101" height="30" viewBox="0 0 101 30" fill="none" xmlns="http://www.w3.org/2000/svg">
<g clip-path="url(#clip0_1114_1278)">
<path d="M5.32456 0.185063C3.27393 1.08424 1.01994 3.6213 0.308002 6.80828C-0.59375 10.8449 3.15812 12.5525 3.4661 11.9933C3.82825 11.3356 2.79381 11.1133 2.58083 9.01862C2.30564 6.31328 3.50712 3.29047 5.01933 1.9641C5.30002 1.71753 5.28687 2.06068 5.28687 2.69499C5.28687 3.82945 5.227 14.0138 5.227 16.1393C5.227 19.0152 5.11355 19.9234 4.90961 20.821C4.70331 21.7302 4.37118 22.3448 4.62263 22.5815C4.90372 22.8462 6.10383 22.2164 6.7985 21.2015C7.63155 19.9842 7.92323 18.522 7.97564 16.9347C8.03885 15.0209 8.0361 11.9839 8.03885 10.2517C8.0412 8.66315 8.06436 4.0113 8.01215 1.21472C7.99939 0.528419 6.18215 -0.19117 5.32456 0.185063Z" fill="url(#paint0_linear_1114_1278)"/>
<path d="M78.1363 13.6449C78.0702 15.1402 77.754 16.3087 77.3616 17.1331C76.6019 18.7291 75.0257 19.2245 74.3564 16.9305C73.9917 15.68 73.9746 13.5915 74.2367 11.8463C74.5036 10.0687 75.2491 8.72612 76.4832 8.84715C77.7006 8.96695 78.2704 10.6089 78.1363 13.6451V13.6449ZM57.6143 22.9215C57.5978 25.4057 57.2243 27.5838 56.4234 28.2167C55.2873 29.1138 53.7604 28.4406 54.0766 26.6279C54.3563 25.0237 55.6795 23.3854 57.6176 21.3837C57.6176 21.3837 57.6216 21.8402 57.6143 22.9215ZM57.3042 13.6303C57.2347 14.9922 56.8975 16.3601 56.5294 17.1331C55.7698 18.7291 54.1822 19.228 53.5242 16.9305C53.0743 15.3606 53.1821 13.3293 53.4045 12.0491C53.6934 10.3882 54.3938 8.84736 55.651 8.84736C56.8735 8.84736 57.4765 10.2514 57.3042 13.6303ZM45.4159 13.6098C45.3413 15.0518 45.0726 16.2574 44.6414 17.1331C43.8609 18.7182 42.3169 19.2208 41.6362 16.9305C41.1453 15.2791 41.3123 13.0274 41.5164 11.811C41.8195 10.0058 42.5784 8.72612 43.763 8.84736C44.9798 8.97188 45.5712 10.6089 45.4159 13.6098ZM99.8965 15.2943C99.5992 15.2943 99.4633 15.6152 99.3509 16.1552C98.9616 18.0341 98.552 18.458 98.0241 18.458C97.4343 18.458 96.9043 17.528 96.7679 15.666C96.6609 14.2017 96.6782 11.5063 96.815 8.82496C96.8431 8.27407 96.6978 7.72893 95.2863 7.19222C94.679 6.96126 93.7961 6.62119 93.3564 7.73201C92.1145 10.8705 91.6284 13.3622 91.514 14.3739C91.5081 14.4263 91.4467 14.4372 91.4361 14.3148C91.3631 13.5041 91.2003 12.0308 91.1799 8.93592C91.176 8.33201 91.0539 7.81811 90.4172 7.39729C90.004 7.124 88.7495 6.64112 88.2978 7.21585C87.9064 7.68558 87.453 8.9501 86.9821 10.4493C86.5993 11.6678 86.3328 12.4917 86.3328 12.4917C86.3328 12.4917 86.3379 9.20448 86.3424 7.95743C86.3444 7.48708 86.0362 7.3303 85.9431 7.30195C85.525 7.17496 84.7006 6.9627 84.3508 6.9627C83.919 6.9627 83.8134 7.21503 83.8134 7.58325C83.8134 7.63153 83.7453 11.9113 83.7453 14.9039C83.7453 15.0339 83.7453 15.1757 83.7459 15.3265C83.5072 16.702 82.7328 18.569 81.8907 18.569C81.0475 18.569 80.6498 17.7886 80.6498 14.2209C80.6498 12.1395 80.7095 11.2344 80.7387 9.72907C80.7558 8.86195 80.7888 8.19619 80.7868 8.04516C80.7805 7.58181 80.0154 7.34818 79.6591 7.26188C79.3013 7.17496 78.9904 7.14106 78.7476 7.15564C78.4039 7.17619 78.1607 7.41188 78.1607 7.73653C78.1607 7.91078 78.1626 8.2416 78.1626 8.2416C77.72 7.51338 77.0081 7.00667 76.5344 6.85975C75.2585 6.46318 73.9273 6.81455 72.9231 8.28558C72.125 9.45414 71.6439 10.778 71.4544 12.6798C71.3161 14.0702 71.3612 15.48 71.6074 16.6724C71.31 18.0179 70.7582 18.569 70.1538 18.569C69.2764 18.569 68.6404 17.0702 68.7143 14.4775C68.7629 12.7722 69.089 11.5755 69.4452 9.84414C69.5972 9.10606 69.4737 8.71975 69.1641 8.34948C68.8801 8.00982 68.275 7.83619 67.4054 8.04948C66.7859 8.20174 65.9001 8.36551 65.0896 8.49126C65.0896 8.49126 65.1387 8.28681 65.1787 7.92681C65.3895 6.03845 63.4292 6.19153 62.8036 6.79462C62.4305 7.15482 62.1763 7.57955 62.0799 8.34311C61.9268 9.55503 62.8709 10.1267 62.8709 10.1267C62.5614 11.6111 61.8019 13.55 61.018 14.9519C60.5981 15.703 60.277 16.2596 59.8622 16.8512C59.8487 14.4771 59.8635 12.103 59.9066 9.72927C59.9236 8.86215 59.9568 8.21407 59.9551 8.06284C59.9503 7.72421 59.7613 7.59599 59.3681 7.43407C59.0203 7.29064 58.6093 7.1916 58.1828 7.15667C57.6445 7.11311 57.3203 7.41167 57.3289 7.7651C57.3305 7.83188 57.3305 8.2416 57.3305 8.2416C56.8878 7.51338 56.1759 7.00667 55.7023 6.85975C54.4264 6.46318 53.0951 6.81455 52.0909 8.28558C51.293 9.45414 50.7705 11.0943 50.6223 12.6654C50.4845 14.1294 50.5098 15.3736 50.6979 16.4219C50.4951 17.4715 49.9117 18.5692 49.2524 18.5692C48.4091 18.5692 47.9294 17.7886 47.9294 14.2209C47.9294 12.1395 47.9891 11.2344 48.0185 9.72907C48.0356 8.86215 48.0684 8.19619 48.0666 8.04516C48.0603 7.58181 47.295 7.34838 46.9387 7.26188C46.5662 7.17147 46.2445 7.13859 45.9973 7.1577C45.6715 7.18297 45.4422 7.48852 45.4422 7.7164V8.2416C44.9996 7.51338 44.2877 7.00667 43.814 6.85975C42.5381 6.46318 41.2143 6.8203 40.2027 8.28558C39.5431 9.24085 39.009 10.2999 38.7342 12.6444C38.6547 13.3219 38.6196 13.9566 38.6243 14.5494C38.3613 16.2335 37.1993 18.1745 36.249 18.1745C35.6929 18.1745 35.1632 17.0452 35.1632 14.6388C35.1632 11.4333 35.3528 6.86921 35.385 6.42948C35.385 6.42948 36.5857 6.40811 36.8181 6.40523C37.4171 6.39825 37.9595 6.41325 38.7574 6.3703C39.1574 6.34914 39.5429 4.84564 39.13 4.65969C38.9427 4.57544 37.6199 4.50188 37.0954 4.49016C36.6546 4.47989 35.427 4.38455 35.427 4.38455C35.427 4.38455 35.5371 1.35516 35.5628 1.03523C35.5844 0.768315 35.2546 0.631055 35.0658 0.547836C34.6061 0.344411 34.1949 0.246808 33.7075 0.141603C33.0338 -0.00387653 32.7284 0.138521 32.6687 0.733384C32.5788 1.63647 32.5323 4.2816 32.5323 4.2816C32.038 4.2816 30.3496 4.18051 29.8553 4.18051C29.396 4.18051 28.9002 6.24845 29.5353 6.27393C30.2659 6.30352 31.5393 6.32941 32.3833 6.35571C32.3833 6.35571 32.3456 10.995 32.3456 12.4276C32.3456 12.5797 32.3464 12.7266 32.3472 12.869C31.8826 15.4036 30.2463 16.7729 30.2463 16.7729C30.5977 15.096 29.8798 13.8366 28.5869 12.7706C28.1105 12.3779 27.1701 11.6343 26.118 10.8193C26.118 10.8193 26.7272 10.1906 27.2678 8.92564C27.6506 8.02934 27.6673 7.00421 26.7272 6.77797C25.1742 6.404 23.8938 7.59804 23.5118 8.87284C23.2158 9.86037 23.3736 10.5929 23.9535 11.354C23.9957 11.4097 24.0418 11.4666 24.0889 11.5237C23.7385 12.231 23.2568 13.1834 22.849 13.9219C21.7168 15.9726 20.8615 17.5942 20.2151 17.5942C19.6985 17.5942 19.7054 15.9475 19.7054 14.4058C19.7054 13.0767 19.7992 11.0785 19.8742 9.00989C19.8989 8.32564 19.5719 7.93585 19.0243 7.58284C18.6914 7.36832 17.981 6.94667 17.5696 6.94667C16.9536 6.94667 15.1768 7.03441 13.4981 12.118C13.2865 12.7587 12.8708 13.9262 12.8708 13.9262L12.9067 7.81297C12.9067 7.66955 12.8337 7.53105 12.6667 7.43633C12.3838 7.27544 11.6283 6.94667 10.9564 6.94667C10.6364 6.94667 10.4765 7.10242 10.4765 7.41311L10.418 16.9774C10.418 17.7041 10.436 18.5519 10.5047 18.9226C10.573 19.2937 10.6839 19.5958 10.821 19.7754C10.9582 19.9548 11.1166 20.0918 11.3778 20.1481C11.621 20.2005 12.9527 20.3795 13.0219 19.8469C13.1048 19.2082 13.1081 18.5178 13.8073 15.9424C14.8959 11.9326 16.3151 9.97647 16.9825 9.28153C17.0993 9.1603 17.2323 9.1529 17.2259 9.3516C17.1976 10.2306 17.0973 12.4276 17.03 14.2934C16.8492 19.2876 17.717 20.2132 18.9573 20.2132C19.9062 20.2132 21.2437 19.2263 22.6774 16.7281C23.4763 15.3359 24.2714 13.9414 25.0629 12.5445C25.4973 12.9656 25.9851 13.4187 26.4723 13.9028C27.6048 15.028 27.9766 16.0973 27.7299 17.1115C27.5414 17.8868 26.8307 18.6859 25.566 17.9094C25.1974 17.6828 25.0399 17.5075 24.6693 17.2521C24.4703 17.115 24.1663 17.0739 23.9839 17.2178C23.5105 17.5913 23.2396 18.0668 23.0849 18.6553C22.9345 19.228 23.4824 19.5306 24.0504 19.7955C24.5394 20.0234 25.5905 20.2299 26.2607 20.2533C28.8723 20.3448 30.9645 18.9333 32.421 15.2924C32.6817 18.4369 33.7911 20.2161 35.7188 20.2161C37.0077 20.2161 38.2999 18.4722 38.865 16.7567C39.0271 17.4559 39.2674 18.0641 39.5775 18.5785C41.0628 21.0422 43.9443 20.512 45.3918 18.4198C45.8393 17.7734 45.9074 17.5412 45.9074 17.5412C46.1186 19.5165 47.6383 20.2067 48.5083 20.2067C49.4828 20.2067 50.4888 19.7244 51.1941 18.0625C51.2767 18.2429 51.367 18.4153 51.4655 18.5785C52.9509 21.0422 55.8326 20.512 57.28 18.4198C57.3483 18.3216 57.4076 18.2328 57.4592 18.1527L57.5016 19.4503L56.169 20.7298C53.9353 22.873 52.2385 24.4983 52.1137 26.3914C51.9547 28.8052 53.8238 29.7023 55.2398 29.8198C56.7408 29.9445 58.0287 29.0758 58.8189 27.86C59.5146 26.7896 59.97 24.4862 59.9364 22.2113C59.9233 21.3002 59.9011 20.1419 59.884 18.9002C60.6682 17.947 61.5517 16.7421 62.3651 15.3321C63.2515 13.7953 64.2016 11.7315 64.688 10.1252C64.688 10.1252 65.5134 10.1328 66.3943 10.0724C66.676 10.0531 66.7571 10.1135 66.7048 10.3295C66.642 10.5908 65.5919 14.8305 66.5504 17.6548C67.2062 19.5884 68.6848 20.2102 69.5614 20.2102C70.5878 20.2102 71.5695 19.3989 72.0955 18.1944C72.1591 18.3286 72.2253 18.4585 72.2977 18.5787C73.783 21.0424 76.6545 20.5087 78.1122 18.4198C78.4412 17.9485 78.6278 17.5412 78.6278 17.5412C78.9405 19.5857 80.4594 20.2172 81.3294 20.2172C82.2354 20.2172 83.0956 19.8282 83.7932 18.0999C83.8226 18.861 83.8684 19.4832 83.9408 19.6792C83.985 19.7994 84.2425 19.9498 84.4297 20.0226C85.2589 20.3443 86.1041 20.1923 86.417 20.1261C86.6337 20.0801 86.8027 19.898 86.8258 19.4283C86.8867 18.1944 86.8494 16.1213 87.2066 14.5804C87.8063 11.9949 88.3659 10.9919 88.6313 10.4955C88.7799 10.2171 88.9473 10.1713 88.9534 10.4657C88.966 11.0616 88.9943 12.8109 89.2267 15.1615C89.3974 16.89 89.6251 17.9119 89.8004 18.2355C90.3006 19.1602 90.9179 19.2039 91.4208 19.2039C91.7407 19.2039 92.4097 19.1115 92.3498 18.523C92.3206 18.2361 92.3716 16.4632 92.963 13.9159C93.3491 12.2524 93.993 10.7495 94.2252 10.1998C94.3109 9.99722 94.3508 10.1569 94.3492 10.1881C94.3003 11.3337 94.1906 15.0808 94.6364 17.1302C95.241 19.9065 96.9891 20.2172 97.5984 20.2172C98.899 20.2172 99.9627 19.1815 100.321 16.4565C100.407 15.8006 100.28 15.2943 99.8965 15.2943Z" fill="url(#paint1_linear_1114_1278)"/>
</g>
<defs>
<linearGradient id="paint0_linear_1114_1278" x1="4.10722" y1="0.081543" x2="4.10722" y2="22.642" gradientUnits="userSpaceOnUse">
<stop stop-color="#ED6C43"/>
<stop offset="1" stop-color="#FF8230"/>
</linearGradient>
<linearGradient id="paint1_linear_1114_1278" x1="6.49957" y1="24.5001" x2="96.9996" y2="8.50006" gradientUnits="userSpaceOnUse">
<stop stop-color="#FE7330"/>
<stop offset="0.507708" stop-color="#F4027A"/>
<stop offset="0.984506" stop-color="#B206AE"/>
</linearGradient>
<clipPath id="clip0_1114_1278">
<rect width="100.5" height="30" fill="white"/>
</clipPath>
</defs>
</svg>
